<?xml version="1.0" encoding="utf-8"?>
<!-- Generator: Adobe Illustrator 19.2.1, SVG Export Plug-In . SVG Version: 6.00 Build 0)  -->
<svg version="1.1" id="layer" xmlns="http://www.w3.org/2000/svg" xmlns:xlink="http://www.w3.org/1999/xlink" x="0px" y="0px"
	 viewBox="0 0 652 652" style="enable-background:new 0 0 652 652;" xml:space="preserve">
<style type="text/css">
	.st0{fill:#006580;}
</style>
<g id="Layer_2">
	<g id="Layer_1-2">
		<g id="RGB_Logo_Horz_Web_Teal">
			<path class="st0" d="M585.9,305.3c5-4.2,12.3-4.2,17.3,0c2.4,2.2,3.7,5.3,3.6,8.5c0.1,3.2-1.2,6.3-3.6,8.4
				c-5,4.1-12.3,4.1-17.3,0c-2.4-2.1-3.7-5.2-3.5-8.4C582.2,310.6,583.5,307.5,585.9,305.3 M562.7,313.6
				c-0.1,16.2,14.2,29.6,31.6,29.8c17.5,0.1,31.6-12.7,31.9-29.4c0.3-16.3-14-29.7-31.6-29.8S562.8,297.3,562.7,313.6"/>
			<path class="st0" d="M398.1,277.2c4.6,3.8,11.3,3.8,15.9,0c2.2-2,3.4-4.8,3.3-7.8c0.1-3-1.1-5.8-3.3-7.8
				c-4.6-3.9-11.3-3.9-15.9,0c-2.2,2-3.4,4.9-3.3,7.8C394.7,272.4,395.9,275.3,398.1,277.2"/>
			<path class="st0" d="M356,325.8c-7.5,0-12.7-4.8-12.7-11.9c0-7.4,5-12.2,12.4-12.1c6.5-0.3,11.9,4.7,12.3,11.1c0,0.3,0,0.6,0,0.8
				c0.3,6.4-4.6,11.8-10.9,12.1C356.7,325.8,356.4,325.8,356,325.8 M383.2,330.7c6.1-10.3,6.7-20.9,1.3-31.6
				c-3.8-7.9-11.3-13.4-20-14.5c-7.6-1.4-15.4,0.7-21.2,5.8v-3.5c0-0.7-0.6-1.2-1.3-1.2h-17.1c-0.7,0-1.3,0.5-1.3,1.2v81.8
				c0,0.5,0.3,1,0.7,1.2c0,0,5.1,2.3,13-0.1c6.6-2.1,6-9.9,6-9.9v-22.3C359.7,349.4,377.1,341.1,383.2,330.7"/>
			<path class="st0" d="M522.8,325.8c-6.4,0.3-11.7-4.7-12-11c0-0.4,0-0.8,0-1.1c-0.2-6.4,5-11.8,11.4-11.9c0.3,0,0.6,0,0.9,0
				c7.4,0,12.4,4.7,12.4,12.1C535.5,320.9,530.4,325.8,522.8,325.8 M555.3,340.4L555.3,340.4v-53.6c0-0.7-0.6-1.2-1.3-1.2h-17.1
				c-0.7,0-1.3,0.5-1.3,1.2v3.6c-5.8-5.1-13.6-7.2-21.2-5.8c-8.7,1.1-16.2,6.6-20,14.5c-5.4,10.6-4.8,21.3,1.3,31.6
				c6.1,10.3,23.4,18.6,39.9,6.7v3.7c0,8.7-5.4,12.4-13,12.4c-2.9,0.1-5.7-0.9-7.9-2.8c-1.4-1.1-2.4-2.6-3-4.2
				c-0.2-0.6-0.8-1-1.5-0.9l0,0l-15.1,4.6c-0.6,0.2-1,0.8-0.9,1.5c0,0,0,0.2,0,0.2l0,0c0.1,0.4,0.2,0.8,0.4,1.2l0,0
				c2.7,7.8,10.8,15.6,24.2,17l1.6,0.1c0.9,0,1.8,0,2.7,0c18.7,0,31.8-11.2,32-30"/>
			<path class="st0" d="M454.7,299.1c4.5-0.3,8.7,2.6,10,6.9c0.2,0.6,0.3,1.1,0.4,1.7H444C445.2,302.7,449.6,299.1,454.7,299.1
				 M446.8,342.2c2.3,0.6,4.6,1,7,1.1h1.3c9.4,0,17.9-2.9,23.4-9.9c1-1.3,1.9-2.7,2.7-4.2V329c0.3-0.7,0-1.4-0.7-1.7c0,0,0,0,0,0
				l0,0l-14-5l0,0c-0.5-0.2-1-0.1-1.4,0.3l-0.1,0.1l-0.5,0.5l0,0c-4,5-11.4,5.9-16.4,1.8c-2-1.6-3.4-3.8-4-6.2h38.1
				c0.6-0.1,1.1-0.5,1.2-1.1c0,0,0-0.1,0-0.1l0,0c0.1-1.5,0.2-3.1,0.2-4.7c0-1.1-0.1-2.2-0.2-3.3c-1.1-11.3-8.9-20.8-19.8-24
				c-2.9-0.9-5.9-1.3-8.9-1.3c-16.4-0.2-29.9,12.9-30.2,29.3c0,0,0,0.1,0,0.1C424.6,327.2,433.8,339,446.8,342.2"/>
			<path class="st0" d="M415.9,341.2v-44.6c0,0,0.6-7.9-6-9.9c-8-2.5-13-0.1-13-0.1c-0.5,0.2-0.7,0.7-0.7,1.2v53.4
				c0,0.7,0.6,1.3,1.3,1.3c0,0,0,0,0,0h17.1C415.3,342.5,415.9,341.9,415.9,341.2"/>
			<path class="st0" d="M254.4,342.6h17.4c0.7,0,1.2-0.6,1.2-1.2v-28.8l0,0c0-2.6,1-5.2,2.7-7.2c1.5-1.7,3.7-2.8,6-3
				c0.5,0,0.9,0,1.4,0c2.8-0.1,5.5,1,7.4,3.1c1.5,1.6,2.4,3.7,2.6,5.9c0,0.1,0,0.3,0,0.4c0,0.4,0,0.8,0,1.2v28.2
				c0,0.7,0.6,1.3,1.3,1.3c0,0,0,0,0,0h17.1c0.7,0,1.3-0.5,1.3-1.2V310c0-14.2-7.5-25.8-24.5-25.8c-5.8-0.2-11.4,1.9-15.6,5.9V271
				c0,0,0.6-7.6-6-9.6c-8-2.5-13-0.1-13-0.1c-0.5,0.2-0.7,0.7-0.7,1.2v79C253.2,342.1,253.7,342.6,254.4,342.6"/>
			<path class="st0" d="M224.4,277.2c4.6,3.8,11.3,3.8,15.9,0c2.2-2,3.4-4.8,3.3-7.8c0.1-3-1.1-5.8-3.3-7.8
				c-4.6-3.9-11.3-3.9-15.9,0c-2.2,2-3.4,4.9-3.3,7.8C220.9,272.4,222.1,275.3,224.4,277.2"/>
			<path class="st0" d="M217.2,369.7c1.3,0.6,2.7,0.9,4.1,0.9c8.9-0.2,16.1-4.7,19.2-12c1.4-3.2,2.1-6.6,2.1-10c0-2.4,0-52.1,0-52.1
				s0.6-7.9-6-9.9l-0.5-0.1l-0.6-0.2c-3.9-1.2-8.1-1.2-12,0.1c-0.5,0.2-0.7,0.7-0.7,1.2v56.5c0,6.8-1,7.9-8.2,9h-0.3
				c-1.2,0-1.5,2.1-1.6,3.5c0,0.3,0,0.6,0,1v0.2l0,0c0,0.7,0,1.5,0,1.9c0,1.3,0.1,2.6,0.4,3.8c0,0,0,0.1,0,0.2
				c0.1,0.5,0.2,1,0.4,1.5c0.2,0.6,0.5,1.1,0.8,1.7l0.2,0.3c0.7,1,1.7,1.8,2.8,2.4"/>
			<path class="st0" d="M269,389.4c-1.3,0-2.4,1-2.4,2.4c0,1.3,1,2.4,2.4,2.4c1.3,0,2.4-1,2.4-2.4c0,0,0,0,0,0
				C271.3,390.4,270.3,389.4,269,389.4"/>
			<path class="st0" d="M325.7,394.2c1.3,0,2.4-1.1,2.4-2.4c0-1.3-1.1-2.4-2.4-2.4s-2.4,1.1-2.4,2.4l0,0
				C323.3,393.1,324.4,394.2,325.7,394.2"/>
			<path class="st0" d="M485.5,394.2c1.3,0,2.4-1.1,2.4-2.4c0-1.3-1.1-2.4-2.4-2.4s-2.4,1.1-2.4,2.4l0,0
				C483.1,393.1,484.2,394.2,485.5,394.2"/>
			<path class="st0" d="M223.7,407.2c-2,0-3.9-0.8-5.3-2.3c-0.4-0.4-0.8-0.6-1.4-0.2l-1.7,1.3c-0.5,0.4-0.5,1-0.2,1.5
				c0.1,0.1,0.1,0.1,0.2,0.2c2.1,2.1,5.1,3.3,8.1,3.1c5.6,0,8.3-3.3,8.3-6.4c0-3.1-2.2-5-5.6-5.9l-4.1-1.1c-1.9-0.5-2.4-1.3-2.4-2.2
				c0-1.6,1.6-2.5,3.5-2.5c1.7,0.1,3.3,0.7,4.6,1.9c0.4,0.4,1.1,0.5,1.5,0.1c0,0,0,0,0.1-0.1l1.2-1.3c0.3-0.3,0.6-0.8-0.1-1.5
				c-2-1.7-4.5-2.6-7.2-2.5c-4.6,0-7.9,2.6-7.9,6.2c0,2.9,1.9,4.8,5,5.6l3.7,1c2,0.5,3.1,1.3,3.1,2.7
				C227.4,406.1,226.1,407.2,223.7,407.2"/>
			<path class="st0" d="M244.9,403.2c-0.1,2.1-1.9,3.8-4,3.7c-2.1-0.1-3.8-1.9-3.7-4c0.1-2.1,1.8-3.7,3.9-3.7
				C243.2,399.2,244.9,401,244.9,403.2C244.9,403.1,244.9,403.2,244.9,403.2 M233.4,403.2c-0.2,4,2.9,7.4,6.9,7.6c0.1,0,0.2,0,0.2,0
				c1.7,0.1,3.4-0.7,4.4-2.2v1.1c0,0.3,0.3,0.6,0.6,0.6h2.6c0.3,0,0.6-0.3,0.6-0.6v-13c0-0.3-0.2-0.6-0.6-0.6c0,0,0,0,0,0h-2.6
				c-0.3,0-0.6,0.3-0.6,0.6v1.1c-1-1.4-2.6-2.3-4.4-2.2c-4,0-7.2,3.3-7.2,7.2C233.4,403,233.4,403,233.4,403.2"/>
			<path class="st0" d="M260.6,409.7l4.5-12.7c0.2-0.3,0-0.7-0.3-0.9c-0.1,0-0.2-0.1-0.3-0.1h-2.7c-0.4,0-0.7,0.2-0.7,0.6l-3,9.8
				l-3.3-9.8c-0.1-0.4-0.4-0.6-0.7-0.6h-2.9c-0.3,0-0.6,0.3-0.6,0.6c0,0.1,0,0.2,0.1,0.3l4.5,12.7c0.1,0.4,0.4,0.6,0.8,0.6h3.7
				C260.2,410.4,260.6,410.1,260.6,409.7"/>
			<path class="st0" d="M267.7,396c-0.3,0-0.6,0.3-0.6,0.6l0,0v13c0,0.3,0.3,0.6,0.6,0.6h2.6c0.3,0,0.6-0.3,0.6-0.6v-13
				c0-0.3-0.3-0.6-0.6-0.6l0,0H267.7z"/>
			<path class="st0" d="M282.5,395.6c-1.8-0.1-3.6,0.7-4.7,2.1v-1c0-0.3-0.3-0.6-0.6-0.6h-2.6c-0.3,0-0.6,0.3-0.6,0.6c0,0,0,0,0,0
				v13c0,0.3,0.3,0.6,0.6,0.6l0,0h2.6c0.3,0,0.6-0.2,0.6-0.6v-6.9c-0.1-1.9,1.3-3.6,3.2-3.7c0.1,0,0.3,0,0.4,0
				c1.8-0.1,3.4,1.3,3.5,3.2c0,0.2,0,0.4,0,0.5v6.8c0,0.3,0.3,0.6,0.6,0.6h2.6c0.3,0,0.6-0.2,0.6-0.6v-7.9c0.2-3.2-2.3-6-5.5-6.2
				C282.9,395.5,282.7,395.5,282.5,395.6"/>
			<path class="st0" d="M298.5,407c-2.2,0.1-4-1.7-4.1-3.8c-0.1-2.2,1.7-4,3.8-4.1c2.2-0.1,4,1.7,4.1,3.8c0,0,0,0.1,0,0.1
				c0.1,2.1-1.4,3.8-3.5,3.9C298.8,407,298.6,407,298.5,407 M298.5,413.8c-1.6,0.2-3-0.7-3.6-2.2c-0.1-0.2-0.4-0.4-0.7-0.3l-2.8,0.7
				c-0.2,0.1-0.4,0.3-0.3,0.5c0,0,0,0,0,0c0.7,2.7,3.4,4.4,7.2,4.4c4.8,0,7.7-2.8,7.7-6.7v-13.8c0-0.3-0.3-0.6-0.6-0.6c0,0,0,0,0,0
				h-2.6c-0.3,0-0.6,0.3-0.6,0.6v0v1.2c-1-1.4-2.7-2.3-4.5-2.2c-4.1,0-7.4,3.4-7.4,7.5c0,4.1,3.4,7.4,7.5,7.4c1.7,0.1,3.3-0.7,4.3-2
				v1.9c0.1,1.9-1.3,3.5-3.2,3.6C299,413.9,298.8,413.9,298.5,413.8"/>
			<path class="st0" d="M321.1,410.3c0.4,0,0.7-0.2,0.8-0.6c0,0,0-0.1,0-0.1v-1.9c0-0.3-0.2-0.5-0.5-0.6c0,0-0.1,0-0.1,0h-0.9
				c-0.6,0-1-0.4-1.1-0.9c0-0.1,0-0.1,0-0.2v-15.8c0-0.3-0.3-0.6-0.6-0.6h-2.6c-0.3,0-0.6,0.3-0.6,0.6v16.6
				c-0.2,1.8,1.1,3.4,2.9,3.6c0.3,0,0.6,0,0.9,0H321.1z"/>
			<path class="st0" d="M326.9,396h-2.6c-0.3,0-0.6,0.3-0.6,0.6l0,0v13c0,0.3,0.3,0.6,0.6,0.6h2.6c0.3,0,0.6-0.3,0.7-0.6v-13
				C327.6,396.3,327.3,396,326.9,396L326.9,396"/>
			<path class="st0" d="M334.8,410.3h3.7c0.4,0,0.7-0.3,0.8-0.6l4.5-12.7c0.2-0.3,0-0.7-0.3-0.9c-0.1,0-0.2-0.1-0.3-0.1h-2.7
				c-0.4,0-0.7,0.2-0.7,0.6l-3,9.8l-3.2-9.8c-0.1-0.4-0.4-0.6-0.7-0.6H330c-0.3,0-0.6,0.3-0.6,0.6c0,0.1,0,0.2,0.1,0.3l4.5,12.7
				C334.1,410.1,334.4,410.4,334.8,410.3"/>
			<path class="st0" d="M348.7,401.7c0.3-1.7,1.8-3,3.5-3c1.8,0,3.3,1.3,3.5,3H348.7z M352.2,395.6c-4.1,0-7.4,3.3-7.4,7.4
				c0,0.1,0,0.1,0,0.2c0.2,4.3,3.8,7.7,8.2,7.5c2.2-0.1,4.2-1.1,5.6-2.7c0.2-0.3,0.2-0.6-0.1-0.8c0,0,0,0,0,0l-1.9-1.3
				c-0.3-0.2-0.6,0-0.8,0.1c-0.8,1-2.1,1.6-3.3,1.5c-1.9,0-3.5-1.4-3.7-3.3h10.2c0.5,0,0.7-0.3,0.7-0.7v-0.7c0-3.9-3.1-7.1-7-7.1
				c-0.1,0-0.2,0-0.3,0"/>
			<path class="st0" d="M367.1,410.7c3.7,0,6.4-2,6.4-4.8s-1.9-3.7-4.4-4.3l-2.3-0.4c-1.3-0.2-1.9-0.7-1.9-1.4s0.8-1.3,2.1-1.3
				c1.2,0.1,2.4,0.5,3.4,1.2c0.5,0.3,1,0.3,1.3,0l0.9-1.1c0.3-0.3,0.4-0.7,0.1-1.1c0,0-0.1-0.1-0.1-0.1c-1.6-1.3-3.6-1.9-5.6-1.9
				c-3.7,0-6,2-6,4.6c0,2.2,1.7,4,3.8,4.2l2.3,0.5c1.5,0.3,2.3,0.6,2.3,1.4s-0.7,1.4-2.3,1.4c-1.4,0-2.7-0.5-3.7-1.5
				c-0.4-0.4-0.9-0.4-1.3,0c0,0,0,0,0,0l-1.1,0.9c-0.6,0.5-0.7,1.2,0.4,2c1.6,1.1,3.5,1.7,5.5,1.7"/>
			<path class="st0" d="M380.6,408.1c0-1.4-1.2-2.6-2.6-2.6c-1.4,0-2.6,1.2-2.6,2.6c0,1.4,1.2,2.6,2.6,2.6
				C379.4,410.7,380.6,409.6,380.6,408.1"/>
			<path class="st0" d="M393.5,389.6h-2.7c-0.3,0-0.6,0.3-0.6,0.6v19.5c0,0.3,0.3,0.6,0.6,0.7c0,0,0,0,0,0h2.7
				c0.3,0,0.6-0.3,0.6-0.7c0,0,0,0,0,0v-19.5C394.1,389.8,393.9,389.6,393.5,389.6"/>
			<path class="st0" d="M407.5,402.6v7.1c0,0.3,0.3,0.6,0.6,0.6h2.6c0.3,0,0.6-0.2,0.6-0.6v-7.2c-0.2-1.7,1.1-3.3,2.8-3.4
				c0.1,0,0.3,0,0.4,0c1.7,0,3,1.3,3.1,2.9c0,0.2,0,0.3,0,0.5v7.2c0,0.3,0.3,0.6,0.6,0.6c0,0,0,0,0,0h2.6c0.3,0,0.6-0.2,0.6-0.6
				v-8.1c0.2-3.2-2.3-5.9-5.4-6c-0.2,0-0.4,0-0.7,0c-2,0-3.9,0.9-5.1,2.5c-0.9-1.6-2.7-2.6-4.6-2.5c-1.7,0-3.4,0.8-4.4,2.1v-1
				c0-0.3-0.3-0.6-0.6-0.6h-2.6c-0.3,0-0.6,0.3-0.6,0.6c0,0,0,0,0,0v13c0,0.3,0.3,0.6,0.6,0.6l0,0h2.6c0.3,0,0.6-0.2,0.6-0.6v-7.2
				c-0.2-1.7,1.1-3.3,2.8-3.4c0.1,0,0.3,0,0.4,0c1.7,0,3,1.3,3.1,2.9C407.6,402.3,407.6,402.4,407.5,402.6"/>
			<path class="st0" d="M428.2,403.2c0.1-2.1,1.9-3.8,4-3.7c2.1,0.1,3.8,1.9,3.7,4c-0.1,2-1.8,3.7-3.8,3.7c-2.1,0-3.9-1.8-3.9-3.9
				C428.2,403.2,428.2,403.2,428.2,403.2 M439.7,403.2c0.2-3.9-2.9-7.3-6.8-7.4c-0.1,0-0.2,0-0.2,0c-1.8-0.1-3.5,0.7-4.5,2.2v-1.2
				c0-0.3-0.2-0.6-0.6-0.6c0,0,0,0,0,0H425c-0.3,0-0.6,0.3-0.6,0.6c0,0,0,0,0,0v19.5c0,0.3,0.3,0.6,0.6,0.6l0,0h2.6
				c0.3,0,0.6-0.3,0.6-0.6l0,0v-7.4c1.1,1.3,2.7,2.1,4.4,2c4,0,7.2-3.3,7.1-7.2C439.7,403.3,439.7,403.2,439.7,403.2"/>
			<path class="st0" d="M445.9,409.7v-6.4c0-2.5,1.1-3.4,3-3.4h0.7c0.4,0,0.7-0.3,0.7-0.7c0,0,0,0,0,0v-2.4c0.1-0.4-0.2-0.7-0.5-0.7
				c0,0-0.1,0-0.1,0h-0.4c-1.5,0-2.8,0.8-3.5,2.1v-1.4c0-0.3-0.3-0.5-0.6-0.6h-2.5c-0.3,0-0.6,0.3-0.6,0.6c0,0,0,0,0,0v13
				c0,0.3,0.3,0.6,0.6,0.6l0,0h2.6C445.6,410.3,445.9,410.1,445.9,409.7"/>
			<path class="st0" d="M458.8,407.2c-2.2,0.1-4.1-1.6-4.2-3.8s1.6-4.1,3.8-4.2c2.2-0.1,4.1,1.6,4.2,3.8c0,0.1,0,0.1,0,0.2
				c0.1,2.1-1.6,3.9-3.7,4C458.9,407.2,458.9,407.2,458.8,407.2 M466.5,403.2c0.1-4.2-3.2-7.8-7.4-7.9c-4.2-0.1-7.8,3.2-7.9,7.4
				c-0.1,4.2,3.2,7.8,7.4,7.9c0.1,0,0.2,0,0.2,0C463,410.7,466.4,407.4,466.5,403.2"/>
			<path class="st0" d="M478.3,396c-0.4,0-0.7,0.2-0.7,0.6l-3,9.8l-3.2-9.8c-0.1-0.4-0.4-0.6-0.7-0.6h-2.9c-0.3,0-0.6,0.3-0.6,0.6
				c0,0.1,0,0.2,0.1,0.3l4.5,12.8c0.1,0.4,0.4,0.6,0.8,0.6h3.7c0.4,0,0.7-0.3,0.8-0.6l4.5-12.8c0.1-0.3,0-0.7-0.3-0.9
				c-0.1,0-0.2-0.1-0.3-0.1L478.3,396z"/>
			<path class="st0" d="M487.5,409.7v-13c0-0.3-0.3-0.6-0.6-0.6c0,0,0,0,0,0h-2.6c-0.3,0-0.6,0.3-0.6,0.6c0,0,0,0,0,0v13
				c0,0.3,0.3,0.6,0.6,0.6h2.6C487.2,410.3,487.5,410,487.5,409.7"/>
			<path class="st0" d="M499,395.6c-1.8-0.1-3.6,0.7-4.7,2.1v-1c0-0.3-0.3-0.6-0.6-0.6h-2.6c-0.3,0-0.6,0.3-0.6,0.6c0,0,0,0,0,0v13
				c0,0.3,0.3,0.6,0.6,0.6l0,0h2.6c0.3,0,0.6-0.2,0.6-0.6v-6.9c-0.1-1.9,1.3-3.6,3.2-3.7c0.1,0,0.3,0,0.4,0c1.8-0.1,3.4,1.3,3.5,3.2
				c0,0.2,0,0.4,0,0.5v6.8c0,0.3,0.3,0.6,0.6,0.6h2.6c0.3,0,0.6-0.2,0.6-0.6v-7.9c0.2-3.2-2.3-6-5.5-6.2
				C499.4,395.5,499.2,395.5,499,395.6"/>
			<path class="st0" d="M515.1,407c-2.2,0.1-4-1.7-4.1-3.8c-0.1-2.2,1.7-4,3.8-4.1s4,1.7,4.1,3.8c0,0,0,0.1,0,0.1
				c0.1,2.1-1.4,3.8-3.5,3.9C515.3,407,515.2,407,515.1,407 M522.1,396h-2.6c-0.3,0-0.6,0.3-0.6,0.6l0,0v1.2c-1-1.4-2.7-2.3-4.5-2.2
				c-4.1,0-7.4,3.4-7.4,7.5c0,4.1,3.4,7.4,7.5,7.4c1.7,0.1,3.3-0.7,4.3-2v1.9c-0.1,2.1-1.9,3.8-4.1,3.7c-1.5-0.1-2.8-1-3.3-2.3
				c-0.1-0.2-0.4-0.4-0.7-0.3l-2.8,0.7c-0.2,0.1-0.4,0.3-0.3,0.5c0,0,0,0,0,0c0.7,2.7,3.4,4.4,7.2,4.4c4.8,0,7.7-2.8,7.7-6.7v-13.8
				C522.7,396.3,522.4,396.1,522.1,396C522.1,396.1,522.1,396.1,522.1,396"/>
			<path class="st0" d="M540.8,395.6c-1.8-0.1-3.6,0.7-4.7,2.1v-7.6c0-0.3-0.3-0.6-0.6-0.6h-2.6c-0.3,0-0.6,0.3-0.6,0.6l0,0v19.5
				c0,0.3,0.3,0.6,0.6,0.6l0,0h2.6c0.3,0,0.6-0.2,0.6-0.6v-6.9c-0.1-1.9,1.3-3.6,3.2-3.7c0.1,0,0.3,0,0.4,0c1.8-0.1,3.4,1.3,3.5,3.2
				c0,0.2,0,0.4,0,0.6v6.9c0,0.3,0.3,0.6,0.6,0.6h2.6c0.3,0,0.6-0.2,0.6-0.6v-7.9c0.2-3.2-2.3-6-5.5-6.2
				C541.2,395.5,541,395.5,540.8,395.6"/>
			<path class="st0" d="M553.1,401.7c0.3-1.7,1.8-3,3.5-3c1.8,0,3.3,1.3,3.5,3H553.1z M556.6,395.6c-4.1,0-7.4,3.3-7.4,7.4
				c0,0.1,0,0.1,0,0.2c0.2,4.3,3.8,7.7,8.2,7.5c2.2-0.1,4.2-1.1,5.6-2.7c0.2-0.3,0.2-0.6-0.1-0.8c0,0,0,0,0,0l-1.9-1.3
				c-0.3-0.2-0.6,0-0.8,0.1c-0.8,1-2.1,1.6-3.3,1.5c-1.9,0-3.5-1.4-3.7-3.3h10.2c0.5,0,0.7-0.3,0.7-0.7v-0.7c0-3.9-3.1-7.1-7-7.1
				c-0.1,0-0.2,0-0.3,0"/>
			<path class="st0" d="M573.4,407.2c-2.2,0-4-1.8-4-4c0-2.2,1.8-4,4-4c2.2,0,4,1.8,4,4C577.4,405.4,575.6,407.2,573.4,407.2
				 M580.4,396h-2.6c-0.3,0-0.6,0.3-0.6,0.6v1.1c-1-1.4-2.6-2.2-4.4-2.2c-4.2,0.2-7.4,3.8-7.2,7.9c0.2,3.9,3.3,7,7.2,7.2
				c1.7,0.1,3.4-0.7,4.4-2.2v1.1c0,0.3,0.3,0.6,0.6,0.6l0,0h2.6c0.3,0,0.6-0.3,0.6-0.6l0,0v-13C581.1,396.3,580.8,396.1,580.4,396
				C580.5,396,580.5,396,580.4,396"/>
			<path class="st0" d="M589.8,407.1h-0.9c-0.6,0-1-0.4-1.1-0.9c0-0.1,0-0.1,0-0.2v-15.8c0-0.3-0.3-0.6-0.6-0.6h-2.6
				c-0.3,0-0.6,0.3-0.6,0.6v16.6c-0.2,1.8,1.1,3.4,2.9,3.6c0.3,0,0.6,0,0.9,0h1.9c0.4,0,0.7-0.2,0.8-0.6c0,0,0-0.1,0-0.1v-1.9
				c0-0.3-0.2-0.6-0.5-0.6C589.9,407.1,589.8,407.1,589.8,407.1"/>
			<path class="st0" d="M601.1,406.8c-0.3-0.4-0.7-0.4-1.2-0.1c-0.4,0.3-0.9,0.4-1.4,0.4c-0.9,0-1.6-0.7-1.7-1.6c0-0.1,0-0.2,0-0.3
				v-6h4.1c0.3,0,0.6-0.3,0.6-0.6v-1.9c0-0.3-0.3-0.6-0.6-0.6H597v-4c0-0.3-0.2-0.6-0.6-0.6c0,0,0,0,0,0h-2.6
				c-0.3,0-0.6,0.3-0.6,0.6c0,0,0,0,0,0v4h-2c-0.3,0-0.6,0.3-0.6,0.6c0,0,0,0,0,0v1.9c0,0.3,0.3,0.6,0.6,0.6h2v6.9
				c-0.1,2.4,1.8,4.4,4.2,4.5c0.2,0,0.4,0,0.6,0c1.5,0.1,2.9-0.5,4-1.4c0.3-0.3,0.3-0.7,0-1L601.1,406.8z"/>
			<path class="st0" d="M612.4,395.6c-1.8-0.1-3.6,0.7-4.7,2.1v-7.6c0-0.3-0.3-0.6-0.6-0.6h-2.6c-0.3,0-0.6,0.3-0.6,0.6l0,0v19.5
				c0,0.3,0.3,0.6,0.6,0.6l0,0h2.6c0.3,0,0.6-0.2,0.6-0.6v-6.9c-0.1-1.9,1.3-3.6,3.2-3.7c0.1,0,0.3,0,0.4,0c1.8-0.1,3.4,1.3,3.5,3.2
				c0,0.2,0,0.4,0,0.5v6.9c0,0.3,0.3,0.6,0.6,0.6h2.6c0.3,0,0.6-0.2,0.6-0.6v-7.9c0.2-3.2-2.3-6-5.5-6.2
				C612.8,395.5,612.6,395.5,612.4,395.6"/>
			<path class="st0" d="M623.7,405.5c-1.4,0-2.6,1.2-2.6,2.6c0,1.4,1.2,2.6,2.6,2.6c1.4,0,2.6-1.2,2.6-2.6
				C626.3,406.7,625.2,405.5,623.7,405.5C623.7,405.5,623.7,405.5,623.7,405.5"/>
			<path class="st0" d="M232.4,426v-2.4c0-0.3-0.3-0.6-0.6-0.7c0,0,0,0,0,0h-16.4c-0.3,0-0.6,0.3-0.6,0.7c0,0,0,0,0,0v2.4
				c0,0.3,0.3,0.6,0.6,0.6c0,0,0,0,0,0h6.2v16.5c0,0.3,0.3,0.6,0.6,0.7c0,0,0,0,0,0h2.8c0.4,0,0.6-0.3,0.7-0.7v-16.5h6.2
				C232.2,426.7,232.4,426.4,232.4,426C232.5,426.1,232.5,426.1,232.4,426"/>
			<path class="st0" d="M238.9,429.3h-0.4c-1.5,0-2.8,0.8-3.5,2.1v-1.3c0-0.3-0.3-0.5-0.6-0.6h-2.5c-0.3,0-0.6,0.3-0.6,0.6
				c0,0,0,0,0,0v13c0,0.3,0.3,0.6,0.6,0.6h0h2.6c0.3,0,0.6-0.2,0.6-0.6v-6.4c0-2.5,1.1-3.4,3-3.4h0.7c0.4,0,0.7-0.3,0.7-0.7
				c0,0,0,0,0,0v-2.5c0.1-0.4-0.2-0.7-0.5-0.7C238.9,429.4,238.9,429.4,238.9,429.3"/>
			<path class="st0" d="M248.1,440.7c-2.2,0-4-1.8-4-4c0-2.2,1.8-4,4-4c2.2,0,4,1.8,4,4C252.1,438.9,250.3,440.7,248.1,440.7
				 M255.1,429.5h-2.6c-0.3,0-0.6,0.3-0.6,0.6c0,0,0,0,0,0v1.1c-1-1.4-2.6-2.3-4.4-2.2c-4.2,0.2-7.4,3.8-7.2,7.9
				c0.2,3.9,3.3,7,7.2,7.2c1.7,0.1,3.4-0.7,4.4-2.2v1.1c0,0.3,0.3,0.6,0.6,0.6h0h2.5c0.3,0,0.6-0.3,0.6-0.6l0,0v-13
				C255.7,429.8,255.4,429.5,255.1,429.5C255.1,429.5,255.1,429.5,255.1,429.5"/>
			<path class="st0" d="M267.3,429.1c-1.8-0.1-3.6,0.7-4.7,2.1v-1c0-0.3-0.3-0.6-0.6-0.6h-2.6c-0.3,0-0.6,0.3-0.6,0.6c0,0,0,0,0,0
				v13c0,0.3,0.3,0.6,0.6,0.6h0h2.6c0.3,0,0.6-0.2,0.6-0.6v-6.9c-0.1-1.9,1.3-3.6,3.2-3.7c0.1,0,0.3,0,0.4,0
				c1.8-0.1,3.4,1.3,3.5,3.2c0,0.2,0,0.4,0,0.5v6.8c0,0.3,0.3,0.6,0.6,0.6h2.6c0.3,0,0.6-0.2,0.6-0.6v-7.9c0.2-3.2-2.3-6-5.5-6.2
				C267.7,429,267.5,429,267.3,429.1"/>
			<path class="st0" d="M283.9,435.1l-2.3-0.4c-1.3-0.2-1.9-0.7-1.9-1.4s0.8-1.3,2.1-1.3c1.2,0.1,2.4,0.5,3.4,1.2
				c0.5,0.3,1,0.3,1.3,0l0.9-1.1c0.3-0.3,0.4-0.8,0.1-1.1c0,0-0.1-0.1-0.1-0.1c-1.6-1.3-3.6-1.9-5.6-1.9c-3.7,0-6,2-6,4.6
				c0,2.2,1.7,4,3.8,4.2l2.3,0.5c1.5,0.3,2.3,0.6,2.3,1.4c0,0.8-0.7,1.4-2.3,1.4c-1.4,0-2.7-0.5-3.7-1.5c-0.4-0.4-0.9-0.4-1.3,0
				c0,0,0,0,0,0l-1.1,0.9c-0.6,0.5-0.7,1.2,0.4,2c1.6,1.1,3.5,1.7,5.4,1.7c3.7,0,6.4-2,6.4-4.8c0-2.8-1.9-3.7-4.4-4.3"/>
			<path class="st0" d="M300.9,423.6c-1.1-0.9-2.5-1.4-3.9-1.4c-2.6-0.2-4.9,1.8-5.1,4.4c0,0.2,0,0.4,0,0.6v2.3h-1.9
				c-0.3,0-0.6,0.3-0.6,0.6c0,0,0,0,0,0v1.9c0,0.3,0.3,0.6,0.6,0.6h1.9v10.5c0,0.3,0.3,0.6,0.6,0.6h2.6c0.3,0,0.6-0.3,0.6-0.6v-10.5
				h2.8c0.3,0,0.6-0.3,0.6-0.6v-1.9c0-0.3-0.3-0.6-0.6-0.6h-2.8v-1.9c-0.1-0.9,0.5-1.7,1.4-1.8c0.1,0,0.1,0,0.2,0
				c0.5,0,1,0.2,1.4,0.5c0.3,0.2,0.8,0.4,1.1,0l1.1-1.5c0.3-0.3,0.3-0.7,0-1"/>
			<path class="st0" d="M307.6,440.6c-2.2,0.1-4.1-1.6-4.2-3.8c-0.1-2.2,1.6-4.1,3.8-4.2c2.2-0.1,4.1,1.6,4.2,3.8c0,0.1,0,0.1,0,0.2
				c0.1,2.1-1.6,3.9-3.7,4C307.7,440.6,307.6,440.6,307.6,440.6 M307.6,429.1c-4.2,0.1-7.5,3.5-7.5,7.7c0.1,4.2,3.5,7.5,7.7,7.5
				c4.1-0.1,7.4-3.4,7.5-7.5c0-4.2-3.4-7.6-7.5-7.6C307.7,429.1,307.6,429.1,307.6,429.1"/>
			<path class="st0" d="M325.1,429.3h-0.4c-1.5,0-2.8,0.8-3.5,2.1v-1.3c0-0.3-0.3-0.5-0.6-0.6h-2.5c-0.3,0-0.6,0.3-0.6,0.6
				c0,0,0,0,0,0v13c0,0.3,0.3,0.6,0.6,0.6h0h2.6c0.3,0,0.6-0.2,0.6-0.6v-6.4c0-2.5,1.1-3.4,3-3.4h0.7c0.4,0,0.7-0.3,0.7-0.7
				c0,0,0,0,0,0v-2.5c0.1-0.4-0.2-0.7-0.5-0.7C325.2,429.4,325.2,429.4,325.1,429.3"/>
			<path class="st0" d="M345.7,429.1c-2,0-3.9,0.9-5.1,2.5c-0.9-1.6-2.7-2.6-4.6-2.5c-1.7,0-3.4,0.8-4.4,2.1v-1
				c0-0.3-0.3-0.5-0.6-0.6h-2.6c-0.3,0-0.6,0.3-0.6,0.6c0,0,0,0,0,0v13c0,0.3,0.3,0.6,0.6,0.6h0h2.6c0.3,0,0.6-0.2,0.6-0.6v-7.2
				c-0.2-1.7,1.1-3.3,2.8-3.4c0.1,0,0.3,0,0.4,0c1.7,0,3,1.3,3.1,2.9c0,0.2,0,0.3,0,0.5v7.1c0,0.3,0.3,0.6,0.6,0.6h2.6
				c0.3,0,0.6-0.2,0.6-0.6V436c-0.2-1.7,1.1-3.3,2.8-3.4c0.1,0,0.3,0,0.4,0c1.7,0,3,1.3,3.1,2.9c0,0.2,0,0.3,0,0.5v7.2
				c0,0.3,0.3,0.6,0.6,0.6h2.6c0.3,0,0.6-0.2,0.6-0.6c0,0,0,0,0,0v-8.1c0.2-3.2-2.3-5.9-5.4-6C346.1,429,345.9,429,345.7,429.1"/>
			<path class="st0" d="M356.6,422.8c-1.3,0-2.4,1-2.4,2.4c0,1.3,1,2.4,2.4,2.4c1.3,0,2.4-1,2.4-2.4c0,0,0,0,0,0
				C359,423.9,357.9,422.8,356.6,422.8"/>
			<path class="st0" d="M357.9,429.5h-2.6c-0.3,0-0.6,0.3-0.6,0.6c0,0,0,0,0,0v13c0,0.3,0.3,0.6,0.6,0.6h2.6c0.3,0,0.6-0.3,0.6-0.6
				v-13C358.5,429.8,358.2,429.5,357.9,429.5C357.9,429.5,357.9,429.5,357.9,429.5"/>
			<path class="st0" d="M370.1,429.1c-1.8-0.1-3.6,0.7-4.7,2.1v-1c0-0.3-0.3-0.6-0.6-0.6h-2.6c-0.3,0-0.6,0.3-0.6,0.6c0,0,0,0,0,0
				v13c0,0.3,0.3,0.6,0.6,0.6h0h2.6c0.3,0,0.6-0.2,0.6-0.6v-6.9c-0.1-1.9,1.3-3.6,3.2-3.7c0.1,0,0.3,0,0.4,0
				c1.8-0.1,3.4,1.3,3.5,3.2c0,0.2,0,0.4,0,0.5v6.8c0,0.3,0.3,0.6,0.6,0.6h2.6c0.3,0,0.6-0.2,0.6-0.6v-7.9c0.2-3.2-2.3-6-5.5-6.2
				C370.5,429,370.3,429,370.1,429.1"/>
			<path class="st0" d="M386.2,440.5c-2.2,0.1-4-1.7-4.1-3.8c-0.1-2.2,1.7-4,3.8-4.1c2.2-0.1,4,1.7,4.1,3.8c0,0,0,0.1,0,0.1
				c0.1,2.1-1.4,3.8-3.5,3.9C386.4,440.5,386.3,440.5,386.2,440.5 M393.2,429.5h-2.6c-0.3,0-0.6,0.3-0.6,0.6v0v1.2
				c-1-1.5-2.7-2.3-4.5-2.2c-4.1,0-7.4,3.4-7.4,7.5c0,4.1,3.4,7.4,7.5,7.4c1.7,0.1,3.3-0.7,4.3-2v1.9c-0.1,2.1-1.9,3.8-4.1,3.7
				c-1.5-0.1-2.8-1-3.3-2.3c-0.1-0.2-0.4-0.4-0.7-0.3l-2.8,0.7c-0.2,0.1-0.4,0.3-0.3,0.5c0,0,0,0,0,0c0.7,2.7,3.4,4.4,7.2,4.4
				c4.8,0,7.7-2.8,7.7-6.7v-13.7C393.8,429.8,393.5,429.5,393.2,429.5C393.2,429.5,393.1,429.5,393.2,429.5"/>
			<path class="st0" d="M413.8,423.6c-1.1-0.9-2.5-1.4-3.9-1.4c-2.6-0.2-4.9,1.8-5.1,4.4c0,0.2,0,0.4,0,0.6v2.3h-1.9
				c-0.3,0-0.6,0.3-0.6,0.6l0,0v1.9c0,0.3,0.3,0.6,0.6,0.6h1.9v10.5c0,0.3,0.3,0.6,0.6,0.6h2.6c0.3,0,0.6-0.3,0.6-0.6v-10.5h2.8
				c0.3,0,0.6-0.3,0.6-0.6v-1.9c0-0.3-0.3-0.6-0.6-0.6h-2.8v-1.9c-0.1-0.9,0.5-1.7,1.4-1.8c0.1,0,0.1,0,0.2,0c0.5,0,1,0.2,1.4,0.5
				c0.3,0.2,0.8,0.4,1.1,0l1.1-1.5c0.3-0.3,0.3-0.7,0-1"/>
			<path class="st0" d="M427.2,429.5h-2.6c-0.3,0-0.6,0.2-0.6,0.6v7.4c0.2,1.7-1.1,3.2-2.8,3.4c-0.2,0-0.3,0-0.5,0
				c-1.7,0.1-3.1-1.2-3.2-2.8c0-0.2,0-0.4,0-0.6V430c0-0.3-0.3-0.6-0.6-0.6h-2.6c-0.3,0-0.6,0.2-0.6,0.6v8.1c-0.3,3.1,2,5.8,5,6.1
				c0.3,0,0.6,0,0.8,0c1.7,0.1,3.4-0.7,4.4-2.1v1.1c0,0.3,0.3,0.6,0.6,0.6h2.6c0.3,0,0.6-0.2,0.6-0.6c0,0,0,0,0,0v-13
				C427.9,429.8,427.6,429.5,427.2,429.5C427.3,429.5,427.3,429.5,427.2,429.5"/>
			<path class="st0" d="M440.2,440.2c-0.3-0.3-0.8-0.4-1.1-0.1c0,0,0,0,0,0c-0.4,0.3-0.9,0.4-1.4,0.4c-0.9,0-1.6-0.7-1.7-1.6
				c0-0.1,0-0.2,0-0.3v-6h4.1c0.3,0,0.6-0.3,0.6-0.6v-1.9c0-0.3-0.3-0.6-0.6-0.6H436v-4c0-0.3-0.2-0.6-0.6-0.6c0,0,0,0,0,0h-2.6
				c-0.3,0-0.6,0.3-0.6,0.6l0,0v4h-2c-0.3,0-0.6,0.3-0.6,0.6c0,0,0,0,0,0v1.9c0,0.3,0.3,0.6,0.6,0.6c0,0,0,0,0,0h2v6.9
				c-0.1,2.4,1.8,4.4,4.1,4.5c0.2,0,0.4,0,0.6,0c1.5,0.1,2.9-0.4,4-1.4c0.3-0.3,0.3-0.7,0-1L440.2,440.2z"/>
			<path class="st0" d="M456.3,429.5h-2.6c-0.3,0-0.6,0.2-0.6,0.6v7.4c0.2,1.7-1.1,3.2-2.8,3.4c-0.2,0-0.3,0-0.5,0
				c-1.7,0.1-3.1-1.2-3.2-2.8c0-0.2,0-0.4,0-0.6V430c0-0.3-0.3-0.6-0.6-0.6h-2.6c-0.3,0-0.6,0.2-0.6,0.6v8.1c-0.3,3.1,2,5.8,5,6.1
				c0.3,0,0.6,0,0.8,0c1.7,0.1,3.4-0.7,4.4-2.1v1.1c0,0.3,0.3,0.6,0.6,0.6h2.6c0.3,0,0.6-0.3,0.6-0.6v-13
				C456.9,429.8,456.7,429.5,456.3,429.5C456.3,429.5,456.3,429.5,456.3,429.5"/>
			<path class="st0" d="M467.5,429.3H467c-1.5,0-2.8,0.8-3.5,2.1v-1.3c0-0.3-0.3-0.5-0.6-0.6h-2.5c-0.3,0-0.6,0.3-0.6,0.6v13
				c0,0.3,0.3,0.6,0.6,0.6h0h2.6c0.3,0,0.6-0.2,0.6-0.6v-6.4c0-2.5,1.1-3.4,3-3.4h0.7c0.4,0,0.7-0.3,0.7-0.7c0,0,0,0,0,0v-2.5
				C468.2,429.8,467.9,429.4,467.5,429.3C467.5,429.4,467.5,429.4,467.5,429.3"/>
			<path class="st0" d="M473.1,435.2c0.3-1.7,1.8-3,3.5-3c1.7,0,3.2,1.3,3.5,3H473.1z M476.6,429.1c-4.1,0-7.4,3.3-7.4,7.4
				c0,0.1,0,0.1,0,0.2c0.2,4.3,3.8,7.7,8.2,7.5c2.2-0.1,4.2-1.1,5.6-2.7c0.2-0.3,0.2-0.6-0.1-0.8c0,0,0,0,0,0l-1.9-1.3
				c-0.3-0.2-0.6,0-0.8,0.1c-0.8,1-2.1,1.6-3.3,1.5c-1.9,0-3.5-1.4-3.7-3.3h10.2c0.5,0,0.7-0.3,0.7-0.7v-0.7c0-3.9-3.1-7.1-7-7.1
				c-0.1,0-0.2,0-0.3,0"/>
			<path class="st0" d="M493.5,435.1l-2.3-0.4c-1.3-0.2-1.9-0.7-1.9-1.4s0.8-1.3,2.1-1.3c1.2,0.1,2.4,0.5,3.4,1.2
				c0.5,0.3,1,0.3,1.3,0l0.9-1.1c0.3-0.3,0.4-0.8,0.1-1.1c0,0-0.1-0.1-0.1-0.1c-1.6-1.3-3.6-1.9-5.6-1.9c-3.7,0-6,2-6,4.6
				c0,2.2,1.7,4,3.8,4.2l2.3,0.5c1.5,0.3,2.3,0.6,2.3,1.4c0,0.8-0.7,1.4-2.3,1.4c-1.4,0-2.7-0.5-3.7-1.5c-0.4-0.4-0.9-0.4-1.3,0
				c0,0,0,0,0,0l-1.1,0.9c-0.6,0.5-0.7,1.2,0.4,2c1.6,1.1,3.5,1.7,5.4,1.7c3.7,0,6.4-2,6.4-4.8c0-2.8-1.9-3.7-4.4-4.3"/>
			<path class="st0" d="M502.4,438.9c-1.4,0-2.6,1.2-2.6,2.6c0,1.4,1.2,2.6,2.6,2.6c1.4,0,2.6-1.2,2.6-2.6
				C505,440.1,503.8,438.9,502.4,438.9L502.4,438.9"/>
			<path class="st0" d="M123.1,296.5c4.3,3.7,9.8,5.7,15.5,5.6c5.7,0.1,11.2-1.8,15.5-5.6c4.3-3.8,6.6-9.4,6.4-15.1
				c0.2-5.8-2.1-11.4-6.4-15.3c-4.2-3.8-9.8-5.8-15.5-5.7c-5.7-0.1-11.2,1.9-15.5,5.7c-4.3,3.9-6.6,9.5-6.4,15.3
				C116.5,287.1,118.9,292.7,123.1,296.5"/>
			<path class="st0" d="M126.1,347.2c-3.8,5.3-5.8,11.7-5.7,18.2c0,4,0.4,8,1.2,11.9c0.2,0.9,1.2,1.5,2.1,1.2c0,0,0,0,0,0
				c22.5-9.8,35.8-24.7,35.8-43.6c0-16.5-9.7-25.7-21.7-25.7s-21.7,8.6-21.7,20.2C116,336.7,119.8,343.5,126.1,347.2"/>
			<path class="st0" d="M62.7,242.7c4.9,4.3,11.2,6.5,17.7,6.4c6.5,0.2,12.8-2.1,17.7-6.4c4.9-4.4,7.6-10.8,7.3-17.4
				c0.3-6.6-2.4-13-7.3-17.5c-4.9-4.3-11.2-6.7-17.7-6.5c-6.5-0.2-12.8,2.2-17.7,6.5c-4.9,4.5-7.6,10.9-7.3,17.5
				C55.1,231.9,57.7,238.3,62.7,242.7"/>
			<path class="st0" d="M55.6,442.7c4.3-0.1,8.5-0.7,12.7-1.9c5.1-1.3,10-3.3,14.6-6c5-2.9,9.4-6.7,13-11.2c4.1-5,7-10.8,8.6-17.1
				c1.2-4.9,2-9.9,2.3-14.9c0.3-5.5,0.5-10.2,0.5-13.9c0-5.6,0-74.3,0-87.3c0-1.2,0-1.9,0-1.9c0-0.5,0-4.4-0.1-4.9
				c-0.5-6.3-3.1-16.7-15.2-20.5c-20.5-6.3-33.5-0.4-33.5-0.4c-1.2,0.6-1.9,1.8-1.9,3.1v115.4c0,3.5-0.3,6.9-1,10.3
				c-0.6,3-1.9,5.8-3.8,8.3c-2.1,2.6-4.8,4.6-7.9,5.9c-4.7,1.8-9.7,2.9-14.7,3.2c-1.4,0.1-2.4,1.2-2.5,2.6c0,0-1,16.1,0,21.3
				C27.3,443.1,55.7,442.7,55.6,442.7"/>
		</g>
	</g>
</g>
</svg>
